<svg width="29" height="29" viewBox="0 0 29 29" fill="none" xmlns="http://www.w3.org/2000/svg">
<path d="M21.9844 3.81006H19.0677C18.913 3.81006 18.7646 3.87152 18.6552 3.98091C18.5458 4.09031 18.4844 4.23868 18.4844 4.39339V4.46223L22.5677 7.72889V4.39339C22.5677 4.23868 22.5063 4.09031 22.3969 3.98091C22.2875 3.87152 22.1391 3.81006 21.9844 3.81006Z" fill="#780000"/>
<path d="M12.9414 11.3934C12.9414 11.0066 13.0951 10.6357 13.3685 10.3622C13.642 10.0887 14.013 9.93506 14.3997 9.93506C14.7865 9.93506 15.1574 10.0887 15.4309 10.3622C15.7044 10.6357 15.8581 11.0066 15.8581 11.3934C15.8581 11.7802 15.7044 12.1511 15.4309 12.4246C15.1574 12.6981 14.7865 12.8517 14.3997 12.8517C14.013 12.8517 13.642 12.6981 13.3685 12.4246C13.0951 12.1511 12.9414 11.7802 12.9414 11.3934Z" fill="#780000"/>
<path fill-rule="evenodd" clip-rule="evenodd" d="M24.6094 13.0968L25.5217 13.8271C25.7033 13.9686 25.9334 14.0329 26.1621 14.0059C26.3908 13.9789 26.5996 13.8629 26.7433 13.683C26.887 13.503 26.9539 13.2737 26.9297 13.0447C26.9054 12.8158 26.7919 12.6056 26.6137 12.4598L17.1345 4.87642C16.3587 4.2556 15.3947 3.91736 14.401 3.91736C13.4074 3.91736 12.4434 4.2556 11.6675 4.87642L2.18837 12.4598C2.00706 12.6047 1.89075 12.8158 1.86504 13.0465C1.83933 13.2772 1.90633 13.5087 2.05129 13.69C2.19625 13.8713 2.40731 13.9876 2.63803 14.0133C2.86874 14.0391 3.10022 13.9721 3.28154 13.8271L4.19271 13.0968V25.1018H2.73438C2.50231 25.1018 2.27975 25.1939 2.11566 25.358C1.95156 25.5221 1.85938 25.7447 1.85938 25.9768C1.85938 26.2088 1.95156 26.4314 2.11566 26.5955C2.27975 26.7596 2.50231 26.8518 2.73438 26.8518H26.0677C26.2998 26.8518 26.5223 26.7596 26.6864 26.5955C26.8505 26.4314 26.9427 26.2088 26.9427 25.9768C26.9427 25.7447 26.8505 25.5221 26.6864 25.358C26.5223 25.1939 26.2998 25.1018 26.0677 25.1018H24.6094V13.0968ZM11.1927 11.3934C11.1927 10.5425 11.5307 9.72647 12.1324 9.12479C12.7341 8.52311 13.5501 8.18509 14.401 8.18509C15.2519 8.18509 16.068 8.52311 16.6697 9.12479C17.2714 9.72647 17.6094 10.5425 17.6094 11.3934C17.6094 12.2443 17.2714 13.0604 16.6697 13.6621C16.068 14.2637 15.2519 14.6018 14.401 14.6018C13.5501 14.6018 12.7341 14.2637 12.1324 13.6621C11.5307 13.0604 11.1927 12.2443 11.1927 11.3934ZM14.4594 15.7684C15.234 15.7684 15.9025 15.7684 16.438 15.8408C17.012 15.9178 17.5615 16.0916 18.0072 16.5373C18.4529 16.9829 18.6267 17.5324 18.7037 18.1064C18.7714 18.6081 18.776 19.2264 18.776 19.9416V25.1018H17.026V20.1434C17.026 19.2941 17.0237 18.7434 16.97 18.3398C16.9187 17.9606 16.837 17.8416 16.7694 17.7751C16.7017 17.7086 16.5839 17.6258 16.2047 17.5744C15.7999 17.5208 15.2504 17.5184 14.401 17.5184C13.5517 17.5184 13.001 17.5208 12.5974 17.5744C12.2182 17.6258 12.0992 17.7086 12.0327 17.7751C11.9662 17.8416 11.8834 17.9606 11.832 18.3398C11.7784 18.7446 11.776 19.2941 11.776 20.1434V25.1018H10.026V20.0851C10.026 19.3104 10.026 18.6419 10.0984 18.1064C10.1754 17.5324 10.3492 16.9829 10.7949 16.5373C11.2405 16.0916 11.7912 15.9178 12.364 15.8408C12.8995 15.7684 13.568 15.7684 14.3439 15.7684H14.4594Z" fill="#780000"/>
<path d="M12.9414 11.3934C12.9414 11.0066 13.0951 10.6357 13.3685 10.3622C13.642 10.0887 14.013 9.93506 14.3997 9.93506C14.7865 9.93506 15.1574 10.0887 15.4309 10.3622C15.7044 10.6357 15.8581 11.0066 15.8581 11.3934C15.8581 11.7802 15.7044 12.1511 15.4309 12.4246C15.1574 12.6981 14.7865 12.8517 14.3997 12.8517C14.013 12.8517 13.642 12.6981 13.3685 12.4246C13.0951 12.1511 12.9414 11.7802 12.9414 11.3934Z" fill="#780000"/>
</svg>
