<svg width="19" height="17" viewBox="0 0 19 17" fill="none" xmlns="http://www.w3.org/2000/svg">
<path d="M0.59375 11.01C0.59375 10.0544 0.827083 9.16552 1.29375 8.3433C1.74931 7.5433 2.36597 6.89886 3.14375 6.40997C3.28819 5.33219 3.66875 4.34886 4.28542 3.45997C4.90208 2.57108 5.68264 1.87663 6.62708 1.37663C7.60486 0.854413 8.64931 0.593302 9.76042 0.593302C10.8715 0.593302 11.916 0.854413 12.8938 1.37663C13.8382 1.87663 14.6188 2.57108 15.2354 3.45997C15.8521 4.34886 16.2326 5.33219 16.3771 6.40997C17.1549 6.89886 17.7715 7.5433 18.2271 8.3433C18.6938 9.16552 18.9271 10.0489 18.9271 10.9933C18.9271 11.9377 18.7049 12.8155 18.2604 13.6266C17.816 14.4155 17.2132 15.06 16.4521 15.56C15.691 16.06 14.8493 16.3433 13.9271 16.41L5.59375 16.4266C4.67153 16.3489 3.82986 16.06 3.06875 15.56C2.30764 15.06 1.70486 14.4155 1.26042 13.6266C0.815972 12.8155 0.59375 11.9433 0.59375 11.01ZM13.7938 14.7433C14.4382 14.6989 15.0243 14.5044 15.5521 14.16C16.0799 13.8155 16.4965 13.3655 16.8021 12.81C17.1076 12.2544 17.2604 11.6516 17.2604 11.0016C17.2604 10.3516 17.1021 9.74608 16.7854 9.18497C16.4688 8.62386 16.0382 8.17108 15.4938 7.82664L14.8271 7.40997L14.7271 6.62664C14.616 5.80441 14.3271 5.06275 13.8604 4.40164C13.3938 3.74052 12.8021 3.2183 12.0854 2.83497C11.3688 2.45164 10.5938 2.25997 9.76042 2.25997C8.92708 2.25997 8.15208 2.45164 7.43542 2.83497C6.71875 3.2183 6.12708 3.74052 5.66042 4.40164C5.19375 5.06275 4.90486 5.80441 4.79375 6.62664L4.69375 7.40997L4.02708 7.82664C3.48264 8.17108 3.05208 8.62386 2.73542 9.18497C2.41875 9.74608 2.26042 10.3516 2.26042 11.0016C2.26042 11.6516 2.41319 12.2544 2.71875 12.81C3.02431 13.3655 3.44097 13.8155 3.96875 14.16C4.49653 14.5044 5.08264 14.6989 5.72708 14.7433L5.86042 14.76H13.6604L13.7938 14.7433ZM10.5938 8.92664H13.0938L9.76042 13.0933L6.42708 8.92664H8.92708V5.5933H10.5938V8.92664Z" fill="#687D92"/>
</svg>
