<svg width="14" height="14" viewBox="0 0 14 14" fill="none" xmlns="http://www.w3.org/2000/svg">
<path d="M7.00065 13.4767C6.09398 13.4767 5.22732 13.3034 4.40065 12.9567C3.60954 12.6189 2.9051 12.1411 2.28732 11.5234C1.66954 10.9056 1.19176 10.2011 0.853984 9.41002C0.507318 8.58335 0.333984 7.71668 0.333984 6.81002C0.333984 5.90335 0.507318 5.03668 0.853984 4.21002C1.19176 3.41891 1.66954 2.71446 2.28732 2.09668C2.9051 1.47891 3.60954 1.00113 4.40065 0.663351C5.22732 0.316685 6.09398 0.143351 7.00065 0.143351C7.90732 0.143351 8.77398 0.316685 9.60065 0.663351C10.3918 1.00113 11.0962 1.47891 11.714 2.09668C12.3318 2.71446 12.8095 3.41891 13.1473 4.21002C13.494 5.03668 13.6673 5.90335 13.6673 6.81002C13.6673 7.71668 13.494 8.58335 13.1473 9.41002C12.8095 10.2011 12.3318 10.9056 11.714 11.5234C11.0962 12.1411 10.3918 12.6189 9.60065 12.9567C8.77398 13.3034 7.90732 13.4767 7.00065 13.4767ZM7.00065 12.1434C7.96954 12.1434 8.86732 11.8989 9.69398 11.41C10.494 10.9389 11.1295 10.3034 11.6007 9.50335C12.0895 8.67668 12.334 7.77891 12.334 6.81002C12.334 5.84113 12.0895 4.94335 11.6007 4.11668C11.1295 3.31668 10.494 2.68113 9.69398 2.21002C8.86732 1.72113 7.96954 1.47668 7.00065 1.47668C6.03176 1.47668 5.13398 1.72113 4.30732 2.21002C3.50732 2.68113 2.87176 3.31668 2.40065 4.11668C1.91176 4.94335 1.66732 5.84113 1.66732 6.81002C1.66732 7.77891 1.91176 8.67668 2.40065 9.50335C2.87176 10.3034 3.50732 10.9389 4.30732 11.41C5.13398 11.8989 6.03176 12.1434 7.00065 12.1434ZM6.33398 9.47668L3.50732 6.65002L4.45398 5.70335L6.33398 7.59668L10.1073 3.82335L11.054 4.75668L6.33398 9.47668Z" fill="#C15C5C"/>
</svg>
