<svg width="25" height="25" viewBox="0 0 25 25" fill="none" xmlns="http://www.w3.org/2000/svg">
<path fill-rule="evenodd" clip-rule="evenodd" d="M4.22572 3.97401C2.76172 5.44001 2.76172 7.79601 2.76172 12.51C2.76172 17.224 2.76172 19.581 4.22572 21.045C5.69172 22.51 8.04772 22.51 12.7617 22.51C17.4757 22.51 19.8327 22.51 21.2967 21.045C22.7617 19.582 22.7617 17.224 22.7617 12.51C22.7617 7.79601 22.7617 5.43901 21.2967 3.97401C19.8337 2.51001 17.4757 2.51001 12.7617 2.51001C8.04772 2.51001 5.69072 2.51001 4.22572 3.97401ZM16.7617 10.51C17.2922 10.51 17.8009 10.2993 18.1759 9.92422C18.551 9.54915 18.7617 9.04044 18.7617 8.51001C18.7617 7.97958 18.551 7.47087 18.1759 7.0958C17.8009 6.72072 17.2922 6.51001 16.7617 6.51001C16.2313 6.51001 15.7226 6.72072 15.3475 7.0958C14.9724 7.47087 14.7617 7.97958 14.7617 8.51001C14.7617 9.04044 14.9724 9.54915 15.3475 9.92422C15.7226 10.2993 16.2313 10.51 16.7617 10.51ZM7.08172 13.614C7.3816 13.3353 7.77958 13.1865 8.18877 13.2002C8.59796 13.2138 8.98512 13.3889 9.26572 13.687L11.9137 16.497C12.2997 16.907 12.8231 17.1606 13.384 17.2097C13.945 17.2587 14.5044 17.0998 14.9557 16.763C15.2528 16.542 15.6185 16.4331 15.9882 16.4556C16.3578 16.4781 16.7076 16.6306 16.9757 16.886L19.2437 19.052C19.3886 19.1831 19.5789 19.2526 19.7742 19.2455C19.9694 19.2384 20.1542 19.1554 20.2892 19.0142C20.4242 18.8729 20.4988 18.6845 20.497 18.4892C20.4952 18.2938 20.4173 18.1068 20.2797 17.968L18.0117 15.8C17.4872 15.2998 16.8026 15.0013 16.0791 14.9574C15.3556 14.9135 14.6399 15.1269 14.0587 15.56C13.9022 15.6765 13.7084 15.7315 13.514 15.7143C13.3196 15.6972 13.1384 15.6091 13.0047 15.467L10.3577 12.657C9.80555 12.0709 9.04399 11.7269 8.23919 11.7001C7.43439 11.6733 6.65165 11.9659 6.06172 12.514L5.25172 13.266C5.10585 13.4013 5.01969 13.5889 5.01219 13.7877C5.00468 13.9865 5.07646 14.1801 5.21172 14.326C5.34698 14.4719 5.53465 14.558 5.73343 14.5655C5.93222 14.573 6.12585 14.5013 6.27172 14.366L7.08172 13.614Z" fill="#5CC184"/>
</svg>
