<svg width="25" height="25" viewBox="0 0 25 25" fill="none" xmlns="http://www.w3.org/2000/svg">
<path d="M22.2903 7.68201C22.4003 8.94301 22.4003 10.516 22.4003 12.51C22.4003 16.644 22.4003 18.965 21.4133 20.461L15.4603 14.51L22.2903 7.68201ZM20.3523 21.522L14.4003 15.57L7.57227 22.4C8.83327 22.51 10.4063 22.51 12.4003 22.51C16.5343 22.51 18.8563 22.51 20.3523 21.522Z" fill="#F0934E"/>
<path fill-rule="evenodd" clip-rule="evenodd" d="M12.4004 2.51001C17.1144 2.51001 19.4714 2.51001 20.9354 3.97401C21.4394 4.47801 21.7704 5.08801 21.9874 5.86301L5.75339 22.097C4.97839 21.88 4.36839 21.549 3.86439 21.045C2.40039 19.582 2.40039 17.224 2.40039 12.51C2.40039 7.79601 2.40039 5.43901 3.86439 3.97401C5.33039 2.51001 7.68639 2.51001 12.4004 2.51001ZM5.90039 9.26701C5.90039 11.052 7.01739 13.135 8.76039 13.88C9.16639 14.053 9.63439 14.053 10.0404 13.88C11.7834 13.135 12.9004 11.052 12.9004 9.26701C12.9004 7.46801 11.3334 6.01001 9.40039 6.01001C7.46739 6.01001 5.90039 7.46801 5.90039 9.26701Z" fill="#F0934E"/>
<path d="M10.9004 9.51001C10.9004 9.90783 10.7424 10.2894 10.4611 10.5707C10.1797 10.852 9.79822 11.01 9.40039 11.01C9.00257 11.01 8.62103 10.852 8.33973 10.5707C8.05843 10.2894 7.90039 9.90783 7.90039 9.51001C7.90039 9.11219 8.05843 8.73065 8.33973 8.44935C8.62103 8.16804 9.00257 8.01001 9.40039 8.01001C9.79822 8.01001 10.1797 8.16804 10.4611 8.44935C10.7424 8.73065 10.9004 9.11219 10.9004 9.51001Z" fill="#F0934E"/>
</svg>
