<svg width="25" height="25" viewBox="0 0 25 25" fill="none" xmlns="http://www.w3.org/2000/svg">
<path d="M19.7524 8.127L15.7924 4.564C14.6654 3.549 14.1024 3.041 13.4094 2.776L13.4004 5.51C13.4004 7.867 13.4004 9.046 14.1324 9.778C14.8644 10.51 16.0434 10.51 18.4004 10.51H21.9804C21.6184 9.806 20.9684 9.222 19.7524 8.127Z" fill="#E96767"/>
<path fill-rule="evenodd" clip-rule="evenodd" d="M14.4004 22.51H10.4004C6.62939 22.51 4.74339 22.51 3.57239 21.338C2.40139 20.166 2.40039 18.281 2.40039 14.51V10.51C2.40039 6.73901 2.40039 4.85301 3.57239 3.68201C4.74439 2.51101 6.63939 2.51001 10.4304 2.51001C11.0364 2.51001 11.5214 2.51001 11.9304 2.52701C11.9171 2.60701 11.9104 2.68834 11.9104 2.77101L11.9004 5.60501C11.9004 6.70201 11.9004 7.67201 12.0054 8.45301C12.1194 9.30001 12.3804 10.147 13.0724 10.839C13.7624 11.529 14.6104 11.791 15.4574 11.905C16.2384 12.01 17.2084 12.01 18.3054 12.01H22.3574C22.4004 12.544 22.4004 13.2 22.4004 14.073V14.51C22.4004 18.281 22.4004 20.167 21.2284 21.338C20.0564 22.509 18.1714 22.51 14.4004 22.51ZM10.8984 14.95C11.0469 15.082 11.137 15.2676 11.1488 15.466C11.1606 15.6643 11.0932 15.8593 10.9614 16.008L8.29439 19.008C8.22403 19.0872 8.1377 19.1505 8.04109 19.1939C7.94449 19.2372 7.83979 19.2597 7.73389 19.2597C7.62799 19.2597 7.52329 19.2372 7.42669 19.1939C7.33008 19.1505 7.24375 19.0872 7.17339 19.008L5.83939 17.508C5.70731 17.3592 5.63975 17.1641 5.65156 16.9655C5.66338 16.7669 5.7536 16.5811 5.90239 16.449C6.05118 16.3169 6.24634 16.2494 6.44494 16.2612C6.64354 16.273 6.82931 16.3632 6.96139 16.512L7.73339 17.382L9.83939 15.012C9.90479 14.9382 9.98411 14.878 10.0728 14.8348C10.1615 14.7917 10.2579 14.7665 10.3563 14.7606C10.4548 14.7548 10.5534 14.7684 10.6466 14.8007C10.7398 14.8331 10.8257 14.8834 10.8994 14.949" fill="#E96767"/>
</svg>
