<svg width="29" height="29" viewBox="0 0 29 29" fill="none" xmlns="http://www.w3.org/2000/svg">
<path d="M7.70112 25.2627H7.39779C6.29762 25.2627 5.74812 25.2627 5.40629 24.9208C5.06445 24.5813 5.06445 24.0307 5.06445 22.9305V21.6332C5.06445 21.0288 5.06445 20.7267 5.21962 20.456C5.37479 20.1853 5.60929 20.05 6.07829 19.777C9.16529 17.9815 13.5485 16.9712 16.4733 18.7153C16.6701 18.8328 16.8451 18.9759 16.9983 19.1447C17.1553 19.3162 17.2762 19.5176 17.354 19.7367C17.4318 19.9559 17.4648 20.1884 17.4511 20.4206C17.4374 20.6527 17.3772 20.8798 17.2742 21.0883C17.1712 21.2967 17.0274 21.4824 16.8513 21.6343C16.711 21.7675 16.5398 21.8638 16.3531 21.9143C16.4931 21.898 16.6273 21.8797 16.7556 21.8595C17.8185 21.6903 18.711 21.121 19.5276 20.5038L21.637 18.9113C22.0135 18.6381 22.4668 18.491 22.932 18.491C23.3972 18.491 23.8504 18.6381 24.227 18.9113C24.8955 19.4165 25.1008 20.2483 24.6773 20.9273C24.1838 21.7183 23.4885 22.7298 22.8211 23.3482C22.1538 23.9665 21.1575 24.5195 20.3455 24.9115C19.4448 25.3467 18.4508 25.5963 17.4393 25.7608C15.3883 26.0922 13.251 26.0408 11.221 25.6232C10.0628 25.3848 8.88352 25.2632 7.70112 25.2627ZM8.08145 3.32701C7.65329 3.75518 7.49345 4.34551 7.43395 5.26834C8.11784 5.25898 8.77107 4.98306 9.25459 4.49933C9.73811 4.01559 10.0137 3.36224 10.0228 2.67834C9.10112 2.73901 8.50962 2.89884 8.08145 3.32701ZM20.7141 3.32701C20.286 2.89884 19.6956 2.73901 18.7728 2.67951C18.7821 3.3634 19.0581 4.01663 19.5418 4.50015C20.0255 4.98367 20.6789 5.25929 21.3628 5.26834C21.3021 4.34668 21.1423 3.75518 20.7141 3.32701ZM20.7141 11.293C20.286 11.7212 19.6956 11.881 18.7728 11.9405C18.7821 11.2566 19.0581 10.6034 19.5418 10.1199C20.0255 9.63636 20.6789 9.36073 21.3628 9.35168C21.3021 10.2733 21.1423 10.8648 20.7141 11.293ZM8.08145 11.293C8.50962 11.7212 9.09995 11.881 10.0228 11.9405C10.0134 11.2566 9.73751 10.6034 9.25377 10.1199C8.77003 9.63636 8.11668 9.36073 7.43279 9.35168C7.49345 10.2733 7.65329 10.8648 8.08145 11.293Z" fill="#780000"/>
<path fill-rule="evenodd" clip-rule="evenodd" d="M7.39844 7.01843C8.55876 7.01843 9.67156 6.5575 10.492 5.73702C11.3125 4.91655 11.7734 3.80375 11.7734 2.64343H17.0234C17.0234 3.80375 17.4844 4.91655 18.3048 5.73702C19.1253 6.5575 20.2381 7.01843 21.3984 7.01843V7.60177C20.2381 7.60177 19.1253 8.0627 18.3048 8.88317C17.4844 9.70365 17.0234 10.8164 17.0234 11.9768H11.7734C11.7734 10.8164 11.3125 9.70365 10.492 8.88317C9.67156 8.0627 8.55876 7.60177 7.39844 7.60177V7.01843ZM14.3984 8.47677C14.7079 8.47677 15.0046 8.35385 15.2234 8.13506C15.4422 7.91626 15.5651 7.61952 15.5651 7.3101C15.5651 7.00068 15.4422 6.70393 15.2234 6.48514C15.0046 6.26635 14.7079 6.14343 14.3984 6.14343C14.089 6.14343 13.7923 6.26635 13.5735 6.48514C13.3547 6.70393 13.2318 7.00068 13.2318 7.3101C13.2318 7.61952 13.3547 7.91626 13.5735 8.13506C13.7923 8.35385 14.089 8.47677 14.3984 8.47677Z" fill="#780000"/>
</svg>
