<svg width="20" height="20" viewBox="0 0 20 20" fill="none" xmlns="http://www.w3.org/2000/svg">
<path d="M0 10C0 9.14668 0.106667 8.31335 0.32 7.50002C0.866667 7.52668 1.39 7.40668 1.89 7.14001C2.39 6.87335 2.78333 6.49335 3.07 6.00002C3.35667 5.50668 3.49 4.97668 3.47 4.41002C3.45 3.84335 3.29333 3.32668 3 2.86002C4.22667 1.64668 5.66667 0.813349 7.32 0.360016C7.57333 0.853348 7.94 1.25002 8.42 1.55001C8.9 1.85002 9.42667 2.00002 10 2.00002C10.5733 2.00002 11.1 1.85002 11.58 1.55001C12.06 1.25002 12.4267 0.853348 12.68 0.360016C14.3333 0.813349 15.7733 1.64668 17 2.86002C16.7067 3.32668 16.55 3.84335 16.53 4.41002C16.51 4.97668 16.6433 5.50668 16.93 6.00002C17.2167 6.49335 17.61 6.87335 18.11 7.14001C18.61 7.40668 19.1333 7.52668 19.68 7.50002C19.8933 8.31335 20 9.14668 20 10C20 10.8533 19.8933 11.6867 19.68 12.5C19.1333 12.4733 18.61 12.5933 18.11 12.86C17.61 13.1267 17.2167 13.5067 16.93 14C16.6433 14.4933 16.51 15.0233 16.53 15.59C16.55 16.1567 16.7067 16.6733 17 17.14C15.7733 18.3533 14.3333 19.1867 12.68 19.64C12.4267 19.1467 12.06 18.75 11.58 18.45C11.1 18.15 10.5733 18 10 18C9.42667 18 8.9 18.15 8.42 18.45C7.94 18.75 7.57333 19.1467 7.32 19.64C5.66667 19.1867 4.22667 18.3533 3 17.14C3.29333 16.6733 3.45 16.1567 3.47 15.59C3.49 15.0233 3.35667 14.4933 3.07 14C2.78333 13.5067 2.39 13.1267 1.89 12.86C1.39 12.5933 0.866667 12.4733 0.32 12.5C0.106667 11.6867 0 10.8533 0 10ZM4.8 13C5.12 13.5333 5.32667 14.1067 5.42 14.72C5.51333 15.3333 5.49333 15.9333 5.36 16.52C5.77333 16.8133 6.20667 17.0667 6.66 17.28C7.11333 16.8667 7.62667 16.55 8.2 16.33C8.77333 16.11 9.37333 16 10 16C10.6267 16 11.2267 16.11 11.8 16.33C12.3733 16.55 12.8867 16.8667 13.34 17.28C13.7933 17.0667 14.2267 16.8133 14.64 16.52C14.5067 15.9333 14.4867 15.3333 14.58 14.72C14.6733 14.1067 14.8767 13.5333 15.19 13C15.5033 12.4667 15.9 12.0067 16.38 11.62C16.86 11.2333 17.3867 10.94 17.96 10.74C17.9867 10.5 18 10.2533 18 10C18 9.74668 17.9867 9.50002 17.96 9.26001C17.3867 9.06001 16.86 8.76668 16.38 8.38002C15.9 7.99335 15.5033 7.53335 15.19 7.00002C14.8767 6.46668 14.6733 5.89335 14.58 5.28001C14.4867 4.66668 14.5067 4.06668 14.64 3.48001C14.2267 3.18668 13.7933 2.93335 13.34 2.72001C12.8867 3.13335 12.3733 3.45001 11.8 3.67002C11.2267 3.89001 10.6267 4.00002 10 4.00002C9.37333 4.00002 8.77333 3.89001 8.2 3.67002C7.62667 3.45001 7.11333 3.13335 6.66 2.72001C6.20667 2.93335 5.77333 3.18668 5.36 3.48001C5.49333 4.06668 5.51333 4.66668 5.42 5.28001C5.32667 5.89335 5.12333 6.46668 4.81 7.00002C4.49667 7.53335 4.1 7.99335 3.62 8.38002C3.14 8.76668 2.61333 9.06001 2.04 9.26001C2.01333 9.50002 2 9.74668 2 10C2 10.2533 2.01333 10.5 2.04 10.74C2.61333 10.94 3.14 11.2333 3.62 11.62C4.1 12.0067 4.49333 12.4667 4.8 13ZM10 13C9.45333 13 8.95 12.8667 8.49 12.6C8.03 12.3333 7.66667 11.97 7.4 11.51C7.13333 11.05 7 10.5467 7 10C7 9.45335 7.13333 8.95002 7.4 8.49002C7.66667 8.03001 8.03 7.66668 8.49 7.40001C8.95 7.13335 9.45333 7.00002 10 7.00002C10.5467 7.00002 11.05 7.13335 11.51 7.40001C11.97 7.66668 12.3333 8.03001 12.6 8.49002C12.8667 8.95002 13 9.45335 13 10C13 10.5467 12.8667 11.05 12.6 11.51C12.3333 11.97 11.97 12.3333 11.51 12.6C11.05 12.8667 10.5467 13 10 13ZM10 11C10.28 11 10.5167 10.9033 10.71 10.71C10.9033 10.5167 11 10.28 11 10C11 9.72001 10.9033 9.48335 10.71 9.29002C10.5167 9.09668 10.28 9.00002 10 9.00002C9.72 9.00002 9.48333 9.09668 9.29 9.29002C9.09667 9.48335 9 9.72001 9 10C9 10.28 9.09667 10.5167 9.29 10.71C9.48333 10.9033 9.72 11 10 11Z" fill="#707793"/>
</svg>
