<svg width="14" height="14" viewBox="0 0 14 14" fill="none" xmlns="http://www.w3.org/2000/svg">
<path d="M7.00065 13.6666C6.09398 13.6666 5.22732 13.4933 4.40065 13.1466C3.60954 12.8088 2.9051 12.3311 2.28732 11.7133C1.66954 11.0955 1.19176 10.3911 0.853984 9.59996C0.507318 8.77329 0.333984 7.90663 0.333984 6.99996C0.333984 6.09329 0.507318 5.22663 0.853984 4.39996C1.19176 3.60885 1.66954 2.9044 2.28732 2.28663C2.9051 1.66885 3.60954 1.19107 4.40065 0.853292C5.22732 0.506626 6.09398 0.333292 7.00065 0.333292C7.90732 0.333292 8.77398 0.506626 9.60065 0.853292C10.3918 1.19107 11.0962 1.66885 11.714 2.28663C12.3318 2.9044 12.8095 3.60885 13.1473 4.39996C13.494 5.22663 13.6673 6.09329 13.6673 6.99996C13.6673 7.90663 13.494 8.77329 13.1473 9.59996C12.8095 10.3911 12.3318 11.0955 11.714 11.7133C11.0962 12.3311 10.3918 12.8088 9.60065 13.1466C8.77398 13.4933 7.90732 13.6666 7.00065 13.6666ZM7.00065 12.3333C7.96954 12.3333 8.86732 12.0888 9.69398 11.6C10.494 11.1288 11.1295 10.4933 11.6007 9.69329C12.0895 8.86663 12.334 7.96885 12.334 6.99996C12.334 6.03107 12.0895 5.13329 11.6007 4.30663C11.1295 3.50663 10.494 2.87107 9.69398 2.39996C8.86732 1.91107 7.96954 1.66663 7.00065 1.66663C6.03176 1.66663 5.13398 1.91107 4.30732 2.39996C3.50732 2.87107 2.87176 3.50663 2.40065 4.30663C1.91176 5.13329 1.66732 6.03107 1.66732 6.99996C1.66732 7.96885 1.91176 8.86663 2.40065 9.69329C2.87176 10.4933 3.50732 11.1288 4.30732 11.6C5.13398 12.0888 6.03176 12.3333 7.00065 12.3333ZM6.33398 9.66663L3.50732 6.83996L4.45398 5.89329L6.33398 7.78663L10.1073 4.01329L11.054 4.94663L6.33398 9.66663Z" fill="#5CC184"/>
</svg>
