<svg width="24" height="24" viewBox="0 0 24 24" fill="none" xmlns="http://www.w3.org/2000/svg">
<path fill-rule="evenodd" clip-rule="evenodd" d="M0.333984 12C0.333984 6.50037 0.333984 3.75054 2.04198 2.04137C3.75232 0.333374 6.50098 0.333374 12.0007 0.333374C17.5003 0.333374 20.2502 0.333374 21.9582 2.04137C23.6673 3.75171 23.6673 6.50037 23.6673 12C23.6673 17.4997 23.6673 20.2495 21.9582 21.9575C20.2513 23.6667 17.5003 23.6667 12.0007 23.6667C6.50098 23.6667 3.75115 23.6667 2.04198 21.9575C0.333984 20.2507 0.333984 17.4997 0.333984 12ZM17.834 13.4584C18.0121 13.4584 18.1859 13.5128 18.3323 13.6143C18.4786 13.7157 18.5905 13.8595 18.653 14.0262C18.7155 14.193 18.7257 14.3748 18.6821 14.5475C18.6385 14.7202 18.5433 14.8754 18.4092 14.9925L14.3993 18.4925C14.2245 18.6452 13.9962 18.7222 13.7646 18.7066C13.533 18.6909 13.3171 18.5839 13.1644 18.4091C13.0117 18.2343 12.9347 18.006 12.9503 17.7744C12.966 17.5428 13.073 17.3269 13.2478 17.1742L15.5007 15.2084H6.16732C5.93525 15.2084 5.71269 15.1162 5.5486 14.9521C5.3845 14.788 5.29232 14.5654 5.29232 14.3334C5.29232 14.1013 5.3845 13.8787 5.5486 13.7147C5.71269 13.5506 5.93525 13.4584 6.16732 13.4584H17.834ZM10.8375 5.59154C10.99 5.76638 11.0668 5.99463 11.0511 6.2261C11.0353 6.45757 10.9283 6.6733 10.7535 6.82587L8.50065 8.79171H17.834C18.066 8.79171 18.2886 8.88389 18.4527 9.04799C18.6168 9.21208 18.709 9.43464 18.709 9.66671C18.709 9.89877 18.6168 10.1213 18.4527 10.2854C18.2886 10.4495 18.066 10.5417 17.834 10.5417H6.16732C5.98923 10.5417 5.8154 10.4873 5.66905 10.3858C5.5227 10.2843 5.41079 10.1406 5.34827 9.97387C5.28576 9.80712 5.27561 9.62526 5.31919 9.45259C5.36276 9.27992 5.45799 9.12466 5.59215 9.00754L9.60198 5.50754C9.68859 5.43185 9.78926 5.37398 9.89825 5.33723C10.0072 5.30049 10.1224 5.28559 10.2371 5.29339C10.3519 5.30119 10.464 5.33154 10.567 5.3827C10.67 5.43386 10.7619 5.50483 10.8375 5.59154Z" fill="#780000"/>
</svg>
