<svg width="29" height="29" viewBox="0 0 29 29" fill="none" xmlns="http://www.w3.org/2000/svg">
<path fill-rule="evenodd" clip-rule="evenodd" d="M24.2109 11.8134C24.1429 11.8103 24.0748 11.8091 24.0067 11.8099H21.1659C18.8419 11.8099 16.8516 13.6544 16.8516 16.0601C16.8516 18.4658 18.8419 20.3103 21.1671 20.3103H24.0056C24.0771 20.3111 24.1452 20.3095 24.2097 20.3056C24.6893 20.2745 25.1412 20.0703 25.4815 19.7311C25.8218 19.3918 26.0274 18.9405 26.0601 18.4611C26.0647 18.3923 26.0647 18.3188 26.0647 18.2511V13.8691C26.0647 13.8014 26.0647 13.7279 26.0601 13.6591C26.0275 13.1799 25.822 12.7287 25.482 12.3895C25.1419 12.0503 24.6902 11.846 24.2109 11.8146M20.9174 17.1941C21.5159 17.1941 22.0024 16.6878 22.0024 16.0613C22.0024 15.4348 21.5159 14.9284 20.9174 14.9284C20.3189 14.9284 19.8336 15.4348 19.8336 16.0613C19.8336 16.6878 20.3177 17.1941 20.9174 17.1941Z" fill="#780000"/>
<path fill-rule="evenodd" clip-rule="evenodd" d="M24.0054 22.0101C24.0445 22.0087 24.0834 22.0166 24.1189 22.033C24.1544 22.0494 24.1855 22.0739 24.2098 22.1045C24.2341 22.1352 24.2509 22.1711 24.2587 22.2094C24.2666 22.2477 24.2653 22.2874 24.2551 22.3251C24.0288 23.1324 23.6706 23.8208 23.0954 24.3994C22.2543 25.2476 21.1868 25.6244 19.8684 25.8029C18.5874 25.9768 16.9518 25.9768 14.8844 25.9768H12.5079C10.4418 25.9768 8.80492 25.9768 7.52392 25.8029C6.20559 25.6244 5.13809 25.2476 4.29692 24.3994C3.45576 23.5536 3.08242 22.4768 2.90509 21.1491C2.73242 19.8564 2.73242 18.2068 2.73242 16.1243V15.9959C2.73242 13.9134 2.73242 12.2626 2.90509 10.9723C3.08242 9.64343 3.45576 8.5701 4.29576 7.7196C5.13692 6.8726 6.20442 6.4946 7.52276 6.31727C8.80492 6.14343 10.4418 6.14343 12.5079 6.14343H14.8844C16.9506 6.14343 18.5874 6.14343 19.8684 6.31727C21.1868 6.49577 22.2543 6.8726 23.0954 7.7196C23.6706 8.29943 24.0288 8.98777 24.2551 9.79627C24.2651 9.83393 24.2662 9.87342 24.2582 9.91158C24.2503 9.94974 24.2335 9.9855 24.2092 10.016C24.185 10.0465 24.1539 10.0709 24.1185 10.0873C24.0831 10.1036 24.0444 10.1114 24.0054 10.1101H21.1669C17.9773 10.1101 15.1668 12.6499 15.1668 16.0601C15.1668 19.4703 17.9784 22.0101 21.1681 22.0101H24.0054ZM6.94875 10.6771C6.83768 10.6776 6.72778 10.6999 6.62533 10.7428C6.52289 10.7858 6.4299 10.8484 6.35168 10.9273C6.27347 11.0062 6.21155 11.0997 6.16947 11.2025C6.12738 11.3053 6.10596 11.4154 6.10642 11.5264C6.10642 11.9966 6.48325 12.3769 6.94875 12.3769H11.4474C11.9141 12.3769 12.2909 11.9966 12.2909 11.5264C12.2915 11.302 12.2031 11.0865 12.0449 10.9272C11.8868 10.768 11.6719 10.678 11.4474 10.6771H6.94875Z" fill="#780000"/>
<path d="M9.4707 5.00468L11.755 3.32118C12.3512 2.88066 13.0729 2.64294 13.8142 2.64294C14.5555 2.64294 15.2772 2.88066 15.8734 3.32118L18.1705 5.01401C17.2092 4.97668 16.1359 4.97668 14.961 4.97668H12.4294C11.3537 4.97668 10.3655 4.97668 9.4707 5.00468Z" fill="#780000"/>
</svg>
