<svg width="16" height="16" viewBox="0 0 16 16" fill="none" xmlns="http://www.w3.org/2000/svg">
<path d="M8 0.5C9.02 0.5 9.995 0.695001 10.925 1.085C11.815 1.465 12.6075 2.0025 13.3025 2.6975C13.9975 3.3925 14.535 4.185 14.915 5.075C15.305 6.005 15.5 6.98 15.5 8C15.5 9.02 15.305 9.995 14.915 10.925C14.535 11.815 13.9975 12.6075 13.3025 13.3025C12.6075 13.9975 11.815 14.535 10.925 14.915C9.995 15.305 9.02 15.5 8 15.5C6.98 15.5 6.005 15.305 5.075 14.915C4.185 14.535 3.3925 13.9975 2.6975 13.3025C2.0025 12.6075 1.465 11.815 1.085 10.925C0.695 9.995 0.5 9.02 0.5 8C0.5 6.98 0.695 6.005 1.085 5.075C1.465 4.185 2.0025 3.3925 2.6975 2.6975C3.3925 2.0025 4.185 1.465 5.075 1.085C6.005 0.695001 6.98 0.5 8 0.5ZM8 2C6.91 2 5.9 2.275 4.97 2.825C4.07 3.355 3.355 4.07 2.825 4.97C2.275 5.9 2 6.91 2 8C2 9.09 2.275 10.1 2.825 11.03C3.355 11.93 4.07 12.645 4.97 13.175C5.9 13.725 6.91 14 8 14C9.09 14 10.1 13.725 11.03 13.175C11.93 12.645 12.645 11.93 13.175 11.03C13.725 10.1 14 9.09 14 8C14 6.91 13.725 5.9 13.175 4.97C12.645 4.07 11.93 3.355 11.03 2.825C10.1 2.275 9.09 2 8 2ZM8 2.75C8.75 2.75 9.465 2.9 10.145 3.2L8.975 4.37C8.655 4.29 8.33 4.25 8 4.25C7.32 4.25 6.6925 4.4175 6.1175 4.7525C5.5425 5.0875 5.0875 5.5425 4.7525 6.1175C4.4175 6.6925 4.25 7.32 4.25 8C4.25 8.51 4.3475 8.9925 4.5425 9.4475C4.7375 9.9025 5.005 10.305 5.345 10.655L4.295 11.705L4.175 11.585C3.725 11.115 3.375 10.575 3.125 9.965C2.875 9.335 2.75 8.68 2.75 8C2.75 7.05 2.99 6.165 3.47 5.345C3.93 4.555 4.555 3.93 5.345 3.47C6.165 2.99 7.05 2.75 8 2.75ZM12.8 5.855C13.1 6.535 13.25 7.25 13.25 8C13.25 8.71 13.11 9.39 12.83 10.04C12.57 10.67 12.195 11.225 11.705 11.705L10.655 10.655C10.995 10.305 11.2625 9.9025 11.4575 9.4475C11.6525 8.9925 11.75 8.51 11.75 8C11.75 7.67 11.71 7.345 11.63 7.025L12.8 5.855ZM11.18 3.755L12.245 4.82L9.455 7.61C9.485 7.74 9.5 7.87 9.5 8C9.5 8.27 9.4325 8.52 9.2975 8.75C9.1625 8.98 8.98 9.1625 8.75 9.2975C8.52 9.4325 8.27 9.5 8 9.5C7.73 9.5 7.48 9.4325 7.25 9.2975C7.02 9.1625 6.8375 8.98 6.7025 8.75C6.5675 8.52 6.5 8.27 6.5 8C6.5 7.73 6.5675 7.48 6.7025 7.25C6.8375 7.02 7.02 6.8375 7.25 6.7025C7.48 6.5675 7.73 6.5 8 6.5C8.13 6.5 8.26 6.515 8.39 6.545L11.18 3.755Z" fill="#535353"/>
</svg>
