<svg width="16" height="16" viewBox="0 0 16 16" fill="none" xmlns="http://www.w3.org/2000/svg">
<path d="M0.125 15.875C0.125 14.785 0.4 13.775 0.95 12.845C1.48 11.945 2.195 11.23 3.095 10.7C4.025 10.15 5.035 9.875 6.125 9.875C7.215 9.875 8.225 10.15 9.155 10.7C10.055 11.23 10.77 11.945 11.3 12.845C11.85 13.775 12.125 14.785 12.125 15.875H10.625C10.625 15.065 10.42 14.31 10.01 13.61C9.61 12.93 9.07 12.39 8.39 11.99C7.69 11.58 6.935 11.375 6.125 11.375C5.315 11.375 4.56 11.58 3.86 11.99C3.18 12.39 2.64 12.93 2.24 13.61C1.83 14.31 1.625 15.065 1.625 15.875H0.125ZM6.125 9.125C5.305 9.125 4.55 8.92 3.86 8.51C3.18 8.11 2.64 7.57 2.24 6.89C1.83 6.2 1.625 5.445 1.625 4.625C1.625 3.805 1.83 3.05 2.24 2.36C2.64 1.68 3.18 1.14 3.86 0.740001C4.55 0.33 5.305 0.125 6.125 0.125C6.945 0.125 7.7 0.33 8.39 0.740001C9.07 1.14 9.61 1.68 10.01 2.36C10.42 3.05 10.625 3.805 10.625 4.625C10.625 5.445 10.42 6.2 10.01 6.89C9.61 7.57 9.07 8.11 8.39 8.51C7.7 8.92 6.945 9.125 6.125 9.125ZM6.125 7.625C6.665 7.625 7.165 7.49 7.625 7.22C8.085 6.95 8.45 6.585 8.72 6.125C8.99 5.665 9.125 5.165 9.125 4.625C9.125 4.085 8.99 3.585 8.72 3.125C8.45 2.665 8.085 2.3 7.625 2.03C7.165 1.76 6.665 1.625 6.125 1.625C5.585 1.625 5.085 1.76 4.625 2.03C4.165 2.3 3.8 2.665 3.53 3.125C3.26 3.585 3.125 4.085 3.125 4.625C3.125 5.165 3.26 5.665 3.53 6.125C3.8 6.585 4.165 6.95 4.625 7.22C5.085 7.49 5.585 7.625 6.125 7.625ZM12.335 10.4C13.035 10.71 13.6525 11.1425 14.1875 11.6975C14.7225 12.2525 15.135 12.88 15.425 13.58C15.725 14.31 15.875 15.075 15.875 15.875H14.375C14.375 14.975 14.13 14.15 13.64 13.4C13.16 12.67 12.52 12.125 11.72 11.765L12.335 10.4ZM11.825 1.94C12.585 2.25 13.2 2.75 13.67 3.44C14.14 4.13 14.375 4.9 14.375 5.75C14.375 6.46 14.21 7.1175 13.88 7.7225C13.55 8.3275 13.0975 8.82 12.5225 9.2C11.9475 9.58 11.315 9.8 10.625 9.86V8.345C11.045 8.285 11.4275 8.1325 11.7725 7.8875C12.1175 7.6425 12.3875 7.3325 12.5825 6.9575C12.7775 6.5825 12.875 6.18 12.875 5.75C12.875 5.24 12.74 4.775 12.47 4.355C12.2 3.935 11.845 3.615 11.405 3.395L11.825 1.94Z" fill="#535353"/>
</svg>
